<svg xmlns="http://www.w3.org/2000/svg" class="icon icon-tabler icon-tabler-braces" width="250px" height="250px" viewBox="0 0 24 24" stroke-width="1.82" stroke="rgba(85, 13, 13, 1)" fill="none" stroke-linecap="round" stroke-linejoin="round"><rect x="0" y="0" width="100%" height="100%" stroke="none" stroke-width="0" fill="rgba(255, 255, 255, 1)" rx="5" ry="5"/><g transform="translate(2.40, 2.40) scale(0.8)"><path stroke="none" d="M0 0h24v24H0z" fill="none"/><path d="M7 4a2 2 0 0 0 -2 2v3a2 3 0 0 1 -2 3a2 3 0 0 1 2 3v3a2 2 0 0 0 2 2"/><path d="M17 4a2 2 0 0 1 2 2v3a2 3 0 0 0 2 3a2 3 0 0 0 -2 3v3a2 2 0 0 1 -2 2"/></g>
  
  
  
</svg>